<svg xmlns="http://www.w3.org/2000/svg" version="1.1" xmlns:xlink="http://www.w3.org/1999/xlink" xmlns:svgjs="http://svgjs.dev/svgjs" width="100%" height="100%" viewBox="0 0 1000 600"><rect width="1000" height="600" x="0" y="0" fill="#ffffff"/><g><circle r="166.66666666666666" cx="284.06908671061194" cy="306.2913246054153" fill="#f6f6f6" transform="matrix(1.0647139517038542,0,0,1.0647139517038542,0,-26.11263930425804)"/><path d="M251.8155996687499 248.90623056879505L251.8155996687499 248.90623056879505L234.5347733770435 248.90623056879505Q230.37401203791558 248.90623056879505 230.37401203791558 246.32473630729237L230.37401203791558 246.32473630729237Q230.37401203791558 243.98620621157812 232.07476119843503 241.46545299152254Q233.77551035895445 238.9750702921905 236.50885722407497 236.81876332081765Q239.21183356847195 234.69282687016835 242.58296136878724 233.20467135471387Q245.95408916910256 231.71651583925933 249.1429938450765 231.50392219419442L249.1429938450765 231.50392219419442L257.70748068912076 231.29132854912947Q274.68460177359157 231.29132854912947 289.29282224162455 235.48246040898096Q303.93141323038117 239.703962789556 314.7129480872454 248.90623056879505Q325.4944829441097 258.0781278273106 331.6293281302691 272.5041251710022Q337.76417331642847 286.8997519939703 337.76417331642847 307.3998534823742L337.76417331642847 307.3998534823742Q337.76417331642847 317.1184201139138 335.790089469397 326.4117994553236Q333.81600562236554 335.7051787967334 330.0804315733675 343.9355899128185Q326.34485752436944 352.13563050818004 321.06038691846976 358.96899767098137Q315.7759163125701 365.8023648337827 309.27662487772795 370.78313023244675Q302.7469629221623 375.73352511038723 295.0632211791012 378.5276130169549Q287.37947943604024 381.29133040279896 278.9364746748902 381.29133040279896L278.9364746748902 381.29133040279896Q275.20090062589213 381.29133040279896 275.20090062589213 378.83131822419045L275.20090062589213 378.83131822419045Q275.20090062589213 376.91797541860615 277.5394307216063 375.8550071932815L277.5394307216063 375.8550071932815Q286.62021641795116 371.69424585415356 293.6661772258174 366.1364405617419Q300.7121380336837 360.5786352693301 305.5714213494535 352.83415248482197Q310.4307046652233 345.08966970031383 312.95145788527884 334.7333221335794Q315.4722111053345 324.376974566845 315.4722111053345 310.6191286790717L315.4722111053345 310.6191286790717Q315.4722111053345 296.9523943534691 312.19219486718987 285.745672206475Q308.94254914976875 274.5085795387573 301.47140105177266 266.3996505055664Q294.00025295377657 258.2907214723755 281.8216741436285 253.76551388456488Q269.6430953334804 249.20993577603068 251.8155996687499 248.90623056879505ZM230.37401203791558 376.7053817735412L230.37401203791558 376.7053817735412L230.37401203791558 261.6922197934144Q230.37401203791558 257.86553418224565 232.98587682014187 256.58997231185606Q235.59774160236813 255.31441044146652 241.03406481188563 255.31441044146652L241.03406481188563 255.31441044146652Q247.0170573944272 255.31441044146652 249.41632853158856 256.52923127040896Q251.8155996687499 257.7440520993514 251.8155996687499 261.6922197934144L251.8155996687499 261.6922197934144L251.8155996687499 359.39418496111125Q251.8155996687499 363.76753994530407 256.1889546529427 363.76753994530407L256.1889546529427 363.76753994530407L273.9253387555026 363.76753994530407Q278.5112873847603 363.76753994530407 278.5112873847603 366.44014576897746L278.5112873847603 366.44014576897746Q278.5112873847603 368.0497833673262 275.2616416673393 370.6009071081054Q272.0119959499182 373.1824013696081 267.18308315487195 375.5209314653223Q262.38454088054925 377.85946156103654 256.310436735837 379.59058124227954Q250.20596207040114 381.29133040279896 245.19482615101353 381.29133040279896L245.19482615101353 381.29133040279896L234.74736702210842 381.29133040279896Q230.37401203791558 381.29133040279896 230.37401203791558 376.7053817735412Z " fill="#f96167" transform="matrix(1.0647139517038542,0,0,1.0647139517038542,0,-26.11263930425804)"/><path d="M547.8869414529051 254.42546390008198L547.8869414529051 254.42546390008198L536.7504591095183 254.42546390008198Q534.0690916560139 254.42546390008198 534.0690916560139 252.76184175739678L534.0690916560139 252.76184175739678Q534.0690916560139 251.25479581637606 535.1651250676654 249.630317724107Q536.2611584793168 248.02541165704594 538.0226407480422 246.6357978672736Q539.7645509915598 245.2657561027093 541.9370457896546 244.30672686751433Q544.1095405877493 243.3476976323193 546.1646032345958 243.21069345586287L546.1646032345958 243.21069345586287L551.6839143432691 243.07368927940644Q562.6246764345753 243.07368927940644 572.0388205596528 245.77462875811892Q581.4725367099384 248.49514026203943 588.4206056588 254.42546390008198Q595.3686746076619 260.3362155129165 599.3222236996902 269.6329274867456Q603.2757727917186 278.91006743536667 603.2757727917186 292.121184450808L603.2757727917186 292.121184450808Q603.2757727917186 298.3842325173876 602.0035911531946 304.37327223105433Q600.7314095146706 310.3623119447211 598.324050414079 315.6663307761057Q595.9166913134875 320.9507775822823 592.5111589272849 325.35448325409607Q589.1056265410823 329.75818892590985 584.9172131465571 332.9680010600319Q580.7092277268239 336.1582411689459 575.7575053491844 337.95886748808755Q570.8057829715449 339.7399217820211 565.3647599637039 339.7399217820211L565.3647599637039 339.7399217820211Q562.9574008631123 339.7399217820211 562.9574008631123 338.15458774016815L562.9574008631123 338.15458774016815Q562.9574008631123 336.92155015206026 564.4644468041331 336.2365292697781L564.4644468041331 336.2365292697781Q570.3164823413434 333.55516181627377 574.8571921896137 329.9734812031985Q579.3979020378838 326.3918005901233 582.5294260711737 321.40093416206764Q585.6609501044634 316.41006773401205 587.2854281967325 309.73600713806314Q588.9099062890016 303.06194654211424 588.9099062890016 294.19581912286253L588.9099062890016 294.19581912286253Q588.9099062890016 285.3884077792349 586.796127566531 278.1663304774603Q584.7019208692684 270.9246811504776 579.8872026680854 265.69895041992527Q575.0724844669023 260.4732196893729 567.2241023584697 257.5569879333718Q559.3757202500371 254.62118415216258 547.8869414529051 254.42546390008198ZM534.0690916560139 336.7845459756038L534.0690916560139 336.7845459756038L534.0690916560139 262.6652865126758Q534.0690916560139 260.19921133646005 535.7522858239072 259.3771862777215Q537.4354799918004 258.5551612189829 540.9388725040435 258.5551612189829L540.9388725040435 258.5551612189829Q544.7945614700316 258.5551612189829 546.3407514614684 259.3380422273054Q547.8869414529051 260.12092323562786 547.8869414529051 262.6652865126758L547.8869414529051 262.6652865126758L547.8869414529051 325.6284916070089Q547.8869414529051 328.44686323696976 550.705313082866 328.44686323696976L550.705313082866 328.44686323696976L562.1353758043738 328.44686323696976Q565.090751610791 328.44686323696976 565.090751610791 330.1692014552791L565.090751610791 330.1692014552791Q565.090751610791 331.2065187913064 562.9965449135285 332.8505689087835Q560.9023382162659 334.51419105146874 557.7903862081841 336.02123699248943Q554.6980062253106 337.5282829335102 550.7836011836982 338.64388837036967Q546.849624116878 339.7399217820211 543.6202399575478 339.7399217820211L543.6202399575478 339.7399217820211L536.8874632859747 339.7399217820211Q534.0690916560139 339.7399217820211 534.0690916560139 336.7845459756038ZM630.4613158057157 270.10265609173905L630.4613158057157 270.10265609173905L630.4613158057157 331.5588152450515Q630.4613158057157 334.16189459772363 629.2282782176078 335.82551674040883L629.2282782176078 335.82551674040883Q627.4276518984663 337.88057938725524 624.9811487474585 339.1527610257792Q622.554217621659 340.4249426643032 620.4795829496045 340.4249426643032L620.4795829496045 340.4249426643032Q618.072223849013 340.4249426643032 618.072223849013 337.469566857886L618.072223849013 337.469566857886L618.072223849013 276.03297972978163Q618.072223849013 273.4103283519014 619.3052614371207 271.82499431004845L619.3052614371207 271.82499431004845Q621.1058877562624 269.76993166320204 623.5523909072701 268.4586059742619Q625.9793220330697 267.1472802853218 628.0539567051242 267.1472802853218L628.0539567051242 267.1472802853218Q630.4613158057157 267.1472802853218 630.4613158057157 270.10265609173905ZM630.4613158057157 234.26627793577887L630.4613158057157 234.26627793577887L630.4613158057157 244.22843876668207Q630.4613158057157 246.85109014456228 629.2282782176078 248.49514026203943L629.2282782176078 248.49514026203943Q627.4276518984663 250.5697749340939 624.9811487474585 251.8419565726179Q622.554217621659 253.1141382111419 620.4795829496045 253.1141382111419L620.4795829496045 253.1141382111419Q618.072223849013 253.1141382111419 618.072223849013 250.15876240472463L618.072223849013 250.15876240472463L618.072223849013 240.17702954861338Q618.072223849013 237.49566209510897 619.3052614371207 235.9690441288802L619.3052614371207 235.9690441288802Q621.1058877562624 233.91398148203376 623.5523909072701 232.60265579309367Q625.9793220330697 231.29133010415356 628.0539567051242 231.29133010415356L628.0539567051242 231.29133010415356Q630.4613158057157 231.29133010415356 630.4613158057157 234.26627793577887ZM674.7136648011423 267.1472802853218L674.7136648011423 267.1472802853218Q680.4874122375203 267.1472802853218 685.0868381614147 268.6543262263425Q689.7058361105172 270.1809441925713 692.8765041942231 273.5081884779417Q696.0276002527211 276.8550047885202 697.7107944206143 282.1198795694887Q699.4135606137156 287.3847543504572 699.4135606137156 294.8025519043124L699.4135606137156 294.8025519043124L699.4135606137156 332.1068319508772Q699.4135606137156 333.82917016918657 698.3370992272722 335.3362161102073Q697.2802098660369 336.843262051228 695.7340198746001 337.9784395132956Q694.1682578579552 339.11361697536313 692.4263476144378 339.7790658324372Q690.6648653457122 340.4249426643032 689.3535396567721 340.4249426643032L689.3535396567721 340.4249426643032Q686.9461805561806 340.4249426643032 686.9461805561806 337.469566857886L686.9461805561806 337.469566857886L686.9461805561806 297.3469151813604Q686.9461805561806 277.0507250406008 670.8579758351542 277.0507250406008L670.8579758351542 277.0507250406008Q661.5025477857009 277.0507250406008 653.8498859293489 282.217739695529L653.8498859293489 282.217739695529Q650.8357940473076 284.2140862667512 649.9354808877367 284.2140862667512L649.9354808877367 284.2140862667512Q648.8981635517094 284.2140862667512 648.8981635517094 283.1180528550998L648.8981635517094 283.1180528550998Q648.8981635517094 281.18042235950173 651.031514299388 278.5773430068296L651.031514299388 278.5773430068296Q660.3869423488414 267.1472802853218 674.7136648011423 267.1472802853218ZM681.7204498256282 335.88423281603303L681.7204498256282 335.88423281603303Q678.8237900948351 338.5068841939132 674.5570885994778 340.1900783618065Q670.3099591293285 341.87327252969976 666.3759820625081 341.87327252969976L666.3759820625081 341.87327252969976Q657.2358462903435 341.87327252969976 652.3819840387443 337.01941027810057Q647.5281217871451 332.16554802650137 647.5281217871451 325.0804749011832L647.5281217871451 325.0804749011832Q647.5281217871451 319.99174834708725 651.031514299388 317.3103808935829L651.031514299388 317.3103808935829Q654.202182383094 314.82473369215904 656.5312533828534 314.82473369215904L656.5312533828534 314.82473369215904Q657.2945623659677 314.82473369215904 657.8425790717935 315.3727503979848Q658.3905957776192 315.9403391290186 658.3905957776192 317.03637254067L658.3905957776192 317.03637254067Q658.3905957776192 324.88475464910255 661.0719632311235 328.42729121176166Q663.772902709836 331.96982777442076 670.6426835578656 331.96982777442076L670.6426835578656 331.96982777442076Q672.71731822992 331.96982777442076 675.6726940363372 331.2456628417225Q678.6280698427546 330.5214979090242 680.683132489601 329.28846032091633L680.683132489601 329.28846032091633Q681.9357421029168 328.52515133780196 682.5424748843668 328.52515133780196L682.5424748843668 328.52515133780196Q683.5210761447698 328.52515133780196 683.5210761447698 331.06951461484994L683.5210761447698 331.06951461484994Q683.5210761447698 334.2401826985559 681.7204498256282 335.88423281603303ZM681.1724331198025 298.7365289711327L681.1724331198025 298.7365289711327Q682.4837588087427 299.42154985341483 682.9534874137361 300.5567273154824Q683.4427880439376 301.69190477754995 683.4427880439376 304.78428476042365L683.4427880439376 304.78428476042365Q683.4427880439376 307.5439403147603 682.9926314641522 308.737833852452Q682.5424748843668 309.95129941535185 681.3877253970911 309.95129941535185L681.3877253970911 309.95129941535185Q680.6244164139767 309.95129941535185 679.2543746494125 309.3249946086939L679.2543746494125 309.3249946086939Q672.7760343055442 306.50662297873305 667.5503035749919 306.50662297873305L667.5503035749919 306.50662297873305Q659.0756166599014 306.50662297873305 651.4425268287574 312.63266686885623L651.4425268287574 312.63266686885623Q649.0351677281659 314.55072533924624 648.2131426694273 314.55072533924624L648.2131426694273 314.55072533924624Q647.1171092577758 314.55072533924624 647.1171092577758 313.31768775113835L647.1171092577758 313.31768775113835Q647.1171092577758 311.39962928074834 648.4871510223402 309.1292743566132L648.4871510223402 309.1292743566132Q652.1275477110396 303.0032304664901 658.0774433742902 299.79341833236805Q664.0469110627489 296.60317822345405 671.3277044401476 296.60317822345405L671.3277044401476 296.60317822345405Q676.9057316244451 296.60317822345405 681.1724331198025 298.7365289711327ZM716.4020784943128 337.469566857886L716.4020784943128 337.469566857886L716.4020784943128 302.78793818920144Q716.4020784943128 298.9322492232133 718.2614208890786 296.8771865763669L718.2614208890786 296.8771865763669Q720.1207632838444 294.74383582868825 722.6651265608924 292.9823535599627Q725.2094898379404 291.2208712912372 726.6578197033369 291.2208712912372L726.6578197033369 291.2208712912372Q728.7911704510155 291.2208712912372 728.7911704510155 294.19581912286253L728.7911704510155 294.19581912286253L728.7911704510155 331.7545354971321Q728.7911704510155 335.55150838749597 725.424782115229 337.9784395132956Q722.0388217542344 340.4249426643032 718.8094375949044 340.4249426643032L718.8094375949044 340.4249426643032Q716.4020784943128 340.4249426643032 716.4020784943128 337.469566857886ZM745.9949806089014 267.1472802853218L745.9949806089014 267.1472802853218Q749.9093856505136 267.1472802853218 754.2152311962872 268.8696185036312Q758.5210767420607 270.5919567219406 758.5210767420607 273.3320402510692L758.5210767420607 273.3320402510692Q758.5210767420607 275.5436790995801 755.6244170112676 277.91189414975554Q752.7277572804745 280.28010919993096 750.5356904571717 280.28010919993096L750.5356904571717 280.28010919993096Q748.6763480624059 280.28010919993096 745.3099597266192 278.5773430068296L745.3099597266192 278.5773430068296Q742.1392916429133 277.0507250406008 739.5166402650332 277.0507250406008L739.5166402650332 277.0507250406008Q737.872590147556 277.0507250406008 736.3655442065353 277.5791697212185Q734.8389262403065 278.0880423766281 732.8425796690842 279.57551629244074Q730.846233097862 281.04341818304533 729.574051459338 282.1198795694887Q728.3018698208141 283.176768930724 725.2486338883565 286.03428461110093Q722.1758259306908 288.8918002914779 720.4534877123814 290.3988462324986L720.4534877123814 290.3988462324986Q718.9464417713608 291.7101719214387 717.9091244353335 291.7101719214387L717.9091244353335 291.7101719214387Q716.4020784943128 291.7101719214387 716.4020784943128 289.1658086443907L716.4020784943128 289.1658086443907L716.4020784943128 275.817687452493Q716.4020784943128 272.0990026629613 719.8076108805154 269.6329274867456Q723.2131432667181 267.1472802853218 726.383811350424 267.1472802853218L726.383811350424 267.1472802853218Q728.7911704510155 267.1472802853218 728.7911704510155 270.10265609173905L728.7911704510155 270.10265609173905L728.7911704510155 273.9583450577271Q728.7911704510155 276.1699839062381 729.7501996862105 276.1699839062381L729.7501996862105 276.1699839062381Q730.513508669325 276.1699839062381 732.157558786802 274.50636176355283L732.157558786802 274.50636176355283Q739.5166402650332 267.1472802853218 745.9949806089014 267.1472802853218ZM788.0944068314412 341.87327252969976L788.0944068314412 341.87327252969976Q782.3206593950632 341.87327252969976 778.1518180257461 340.3857986138871Q774.0025486816371 338.9178967232825 771.3798973037569 335.5123643370799Q768.7572459258766 332.1068319508772 767.5242083377688 326.66580894303615Q766.291170749661 321.2247859351951 766.291170749661 313.23939965030615L766.291170749661 313.23939965030615L766.291170749661 275.8764035281171Q766.291170749661 274.03663315855937 767.2893440352722 272.4121550662903Q768.2875173208832 270.7876769740212 769.7554192114878 269.6329274867456Q771.2428931273005 268.4586059742619 773.004375396026 267.79315711718783Q774.7462856395434 267.1472802853218 776.2729036057723 267.1472802853218L776.2729036057723 267.1472802853218Q778.6802627063638 267.1472802853218 778.6802627063638 270.10265609173905L778.6802627063638 270.10265609173905L778.6802627063638 308.91398207932457L778.8759829584443 314.9617378686155Q778.9542710592767 316.95808443983776 779.0912752357331 318.1715500027376Q779.2282794121895 319.3654435404293 779.4239996642701 320.34404480083236Q779.6392919415588 321.3030740360274 779.8741562440556 322.20338719559817Q780.1090205465522 323.08412832996095 780.5396051011296 324.4737421197333L780.5396051011296 324.4737421197333Q781.6943545884052 328.58386741342616 785.0020268485675 330.2866336065275Q788.3096991087299 331.96982777442076 793.3201375619936 331.96982777442076L793.3201375619936 331.96982777442076Q798.4871522169218 331.96982777442076 803.1648662416484 329.28846032091633L803.1648662416484 329.28846032091633Q804.4761919305885 328.52515133780196 804.96549256079 328.52515133780196L804.96549256079 328.52515133780196Q805.9832378716093 328.52515133780196 805.9832378716093 331.06951461484994L805.9832378716093 331.06951461484994Q805.9832378716093 333.8878862448108 803.986891300387 335.92337686644913Q801.9905447291648 337.95886748808755 799.1721730992039 339.2506211518196Q796.3538014692432 340.5619468407597 793.3005655367855 341.22739569783374Q790.2277575791198 341.87327252969976 788.0944068314412 341.87327252969976ZM821.8170062649308 270.10265609173905L821.8170062649308 270.10265609173905L821.8170062649308 353.7143477805769Q821.8170062649308 358.861790410297 820.5056805759907 363.2459240569027Q819.1943548870506 367.61048567830034 817.2371523662445 370.33099718222087Q815.2799498454384 373.05150868614135 812.9313068204709 374.9695671565314Q810.6022358207116 376.88762562692136 808.7037493755298 377.6900786604519Q806.8248349555558 378.47295966877437 805.4352211657836 378.47295966877437L805.4352211657836 378.47295966877437Q804.3391877541321 378.47295966877437 804.3391877541321 377.5139304335794L804.3391877541321 377.5139304335794Q804.3391877541321 376.88762562692136 805.4352211657836 375.38057968590067L805.4352211657836 375.38057968590067Q807.7838641907509 372.1511955265705 808.6450332999055 367.21904517413907Q809.5062024090603 362.3064668469157 809.5062024090603 353.9883561334897L809.5062024090603 353.9883561334897L809.3691982326039 276.03297972978163Q809.3691982326039 273.3320402510692 810.6609518963359 271.82499431004845L810.6609518963359 271.82499431004845Q812.4615782154775 269.76993166320204 814.9080813664851 268.4586059742619Q817.3350124922848 267.1472802853218 819.4096471643393 267.1472802853218L819.4096471643393 267.1472802853218Q821.8170062649308 267.1472802853218 821.8170062649308 270.10265609173905ZM781.3616301598682 367.9432101068374L781.3616301598682 367.9432101068374Q783.8277053360838 369.8025525016032 785.9610560837625 370.6050055351337Q788.0944068314412 371.38788654345615 791.1867868143149 371.38788654345615L791.1867868143149 371.38788654345615Q793.9464423686517 371.38788654345615 797.4889789313107 370.6441495855498Q801.0315154939698 369.88084060243546 801.2468077712584 369.88084060243546L801.2468077712584 369.88084060243546Q803.0278620651919 369.88084060243546 803.0278620651919 371.6031788207448L803.0278620651919 371.6031788207448Q803.0278620651919 374.7542748792427 797.6651271581833 378.02280308898895Q792.3023922511744 381.29133129873514 786.098060260219 381.29133129873514L786.098060260219 381.29133129873514Q780.050304470928 381.29133129873514 774.6484255135032 378.7469680216872Q769.2465465560782 376.20260474463925 769.2465465560782 373.7365295684235Q769.2465465560782 371.25088236699975 772.0649181860391 369.0588155436969L772.0649181860391 369.0588155436969Q775.2943023453691 366.3774480901925 777.3689370174237 366.3774480901925Q779.4239996642701 366.3774480901925 781.3616301598682 367.9432101068374Z " fill="#f96167" transform="matrix(1.0647139517038542,0,0,1.0647139517038542,0,-26.11263930425804)"/></g></svg>